# xmcd
#
# Track frame offsets: 
#        150
#        916
#        2373
#        4896
#        13624
#        35260
#        41728
#        57466
#        74113
#        76726
#        81230
#        88379
#        96310
#        102997
#        104135
#        106722
#        125150
#        132998
#        147604
#        170274
#        179479
#        184119
#        205501
#        207696
#        211384
#        212028
#        230178
#        234212
#        235805
#        249246
#        254283
#        266672
#        268079
#        270535
#        273653
#        294936
#        298438
#        308229
#
# Disc length: 4301 seconds
#
# Revision: 0
# Processed by: cddbd v1.5.2PL0 Copyright (c) Steve Scherf et al.
# Submitted via: ExactAudioCopy v0.95b3
#
DISCID=3e10cb26
DTITLE=The Beatles  - AB  Road - Complete Purple Chick Set v1.1 Jan.21
DTITLE=Various Artist - D2  FLAC
DYEAR=1900
DGENRE=
TTITLE0=Dialogue
TTITLE1=Stones x take 1
TTITLE2=Run For Your Life 21.29
TTITLE3=Hi Heel Sneakers 21.30
TTITLE4=My Baby Left Me (That's Alright Mama) 21.3
TTITLE5=Hallelujah, I Love Her So 21.32
TTITLE6=Milk Cow Blues-I'm A Man 21.33
TTITLE7=Improvisation 21.34
TTITLE8=Dialogue
TTITLE9=Little Queenie 21.35
TTITLE10=When Irish Eyes Are Smiling 21.36
TTITLE11=Queen Of The Hop 21.37
TTITLE12=All I Want Is You 21.38
TTITLE13=Dig A Pony 21.39
TTITLE14=Five Feet High And Rising 21.40
TTITLE15=Dig A Pony 21.41
TTITLE16=In The Middle Of An Island - Gilly Gilly Ossenfeffer Katzenel
TTITLE16=een Bogen By The Sea 21.42
TTITLE17=Dig A Pony 21.43
TTITLE18=Improvisation-Good Rockin' Tonight 21.44
TTITLE19=Forty Days 21.45
TTITLE20=Too Bad About Sorrows 21.46
TTITLE21=Dig A Pony 21.47
TTITLE22=I'm Ready 21.48
TTITLE23=Dig A Pony 21.49
TTITLE24=Dig A Pony 21.50
TTITLE25=Dig A Pony 21.51
TTITLE26=Shout! 21.52
TTITLE27=Unknown 21.53
TTITLE28=I've Got A Feeling 21.54
TTITLE29=I've Got A Feeling 21.55
TTITLE30=William Smith Boogie 21.56
TTITLE31=San Ferry Ann 21.57
TTITLE32=Dig A Pony 21.58
TTITLE33=You Gotta Give Back 21.59
TTITLE34=Dig A Pony 21.60
TTITLE35=Well, Well, Well 21.61
TTITLE36=You've Got Me Thinking 21.62
TTITLE37=Dig A Pony 21.63
EXTD=
EXTT0=
EXTT1=
EXTT2=
EXTT3=
EXTT4=
EXTT5=
EXTT6=
EXTT7=
EXTT8=
EXTT9=
EXTT10=
EXTT11=
EXTT12=
EXTT13=
EXTT14=
EXTT15=
EXTT16=
EXTT17=
EXTT18=
EXTT19=
EXTT20=
EXTT21=
EXTT22=
EXTT23=
EXTT24=
EXTT25=
EXTT26=
EXTT27=
EXTT28=
EXTT29=
EXTT30=
EXTT31=
EXTT32=
EXTT33=
EXTT34=
EXTT35=
EXTT36=
EXTT37=
PLAYORDER=
